<svg xmlns="http://www.w3.org/2000/svg" xmlns:xlink="http://www.w3.org/1999/xlink" width="339" height="262" viewBox="0 0 339 262">
  <defs>
    <clipPath id="clip-path">
      <rect id="Rectángulo_420534" data-name="Rectángulo 420534" width="339" height="262" transform="translate(136 2317)" fill="#fff" stroke="#707070" stroke-width="1"/>
    </clipPath>
    <clipPath id="clip-path-2">
      <circle id="Elipse_14529" data-name="Elipse 14529" cx="10.966" cy="10.966" r="10.966"/>
    </clipPath>
  </defs>
  <g id="Enmascarar_grupo_1211489" data-name="Enmascarar grupo 1211489" transform="translate(-136 -2317)" clip-path="url(#clip-path)">
    <g id="Grupo_1222059" data-name="Grupo 1222059">
      <rect id="Rectángulo_420533" data-name="Rectángulo 420533" width="282" height="210" transform="translate(136 2369)" fill="#86b60c"/>
      <g id="OBJECTS" transform="translate(136 2282.021)">
        <g id="Grupo_1222058" data-name="Grupo 1222058" transform="translate(0 68.999)">
          <g id="Grupo_1222033" data-name="Grupo 1222033">
            <g id="Grupo_1222003" data-name="Grupo 1222003" transform="translate(0 0.002)">
              <g id="Grupo_1222002" data-name="Grupo 1222002" transform="translate(0.002)">
                <path id="Trazado_1173631" data-name="Trazado 1173631" d="M240.3,296.981H199.245c-.233-.016-.471-.021-.714-.021q-5.221.024-10.447.021H.077L0,109.334s18.513,11.039,26,14.319c17.683,7.733,47.093,17.138,59.687-1.365,7.469-10.981,12.753-38.122,35.355-48.31A60.383,60.383,0,0,1,140.414,69.2c1.582-.138,3.174-.212,4.766-.19,12.351.116,25.051,5.131,33.689,14.06A33.152,33.152,0,0,1,187.423,99c1.016,4.094,1.82,8.156,2.745,12.166,1.232,5.353,8.131,24.74,9.9,29.331,14.359,37.329,31.468,48.013,41.322,55.789,9.3,7.339,15.715,18.321,19.573,29.607C271.63,257.109,250.514,290.1,240.3,296.981Z" transform="translate(-0.003 -69.003)" fill="#28183d"/>
              </g>
              <path id="Trazado_1173632" data-name="Trazado 1173632" d="M407.62,336.812c12.591-8.816,27.742-23.777,21.048-69.006-1.58-10.677-8.11-28.3-34.873-52.3-11.9-10.667-26.561-31.179-34.279-59.841" transform="translate(-169.348 -109.826)" fill="none" stroke="#28183d" stroke-linecap="round" stroke-linejoin="round" stroke-miterlimit="10" stroke-width="2"/>
              <path id="Trazado_1173633" data-name="Trazado 1173633" d="M0,104.46s25.679,15.447,32.09,18.606c21.158,10.427,47.042,14.893,58.049-1.283,6.533-9.6,11.762-32.044,31.521-40.95" transform="translate(0 -74.576)" fill="none" stroke="#28183d" stroke-linecap="round" stroke-linejoin="round" stroke-miterlimit="10" stroke-width="2"/>
              <path id="Trazado_1173634" data-name="Trazado 1173634" d="M42.979,149.8s56.324,4.745,79.41-34.548" transform="translate(-20.245 -90.79)" fill="none" stroke="#28183d" stroke-linecap="round" stroke-linejoin="round" stroke-miterlimit="10" stroke-width="2"/>
            </g>
            <g id="Grupo_1222023" data-name="Grupo 1222023" transform="translate(85.687 22.041)">
              <g id="Grupo_1222004" data-name="Grupo 1222004" transform="translate(7.476 72.235)">
                <path id="Trazado_1173635" data-name="Trazado 1173635" d="M312.649,345.584c-.354,3.846-3.74,7.723-5.231,11.283-.54,1.28-34.737,6.924-45.744,7.918a128.28,128.28,0,0,0-33.134,7.675c-5.93,2.211-12.51,3.184-18.836,4.285q-3.912.19-7.823.275a27.97,27.97,0,0,1-7.839-.756.019.019,0,0,0-.016-.005c-4.343-1.174-6.612-3.634-9.061-6.919-3.306-4.427-5-8.9-6.49-15.7a72.361,72.361,0,0,1-1.619-9.913q-.825-10.854-.714-21.751c.159-15.514-.376-36.546,15.906-44.617,2.576-1.28,5.337-2.132,7.977-3.253a42.367,42.367,0,0,0,9.627-5.7h.005a42.327,42.327,0,0,0,3.687-3.264c1.761-1.746,3.692-3.57,4.48-5.935.83-2.486.751-5.242,1.391-7.781a2.169,2.169,0,0,1,.344-.846,2,2,0,0,1,.957-.577,27.878,27.878,0,0,1,7-1.169q6.935-.587,13.827-1.6c.074,3.629.349,7.993,2.391,11.039a13.484,13.484,0,0,0,3.057,3.544,7.21,7.21,0,0,0,2.55,1.2c3.015.756,6.146-.577,9.22-1.6.7-.227,1.4-.444,2.084-.619a13.034,13.034,0,0,1,4.047-.561c2.5.2,4.628,1.8,6.6,3.354,3.079,2.417,5.3,5.443,8.262,8.035,3.285,2.592,6,5.76,9.119,8.516,2.9,2.565,6.1,4.761,8.659,7.7,3.9,4.48,6.76,9.743,9.59,14.959a54.917,54.917,0,0,1,5.237,11.785,47.74,47.74,0,0,1,1.248,11.769A188.281,188.281,0,0,1,312.649,345.584Z" transform="translate(-176.128 -247.23)" fill="#f4a3a2"/>
                <path id="Trazado_1173636" data-name="Trazado 1173636" d="M316.875,380.005c-.011.106-.021.206-.037.312v.016a63.309,63.309,0,0,1-2.063,10.473c-.069.222-.132.434-.2.645-.185.6.855,6.6.252,7.756-.085.169-.169.328-.243.471-.175.317-.323.571-.428.751-1.846,3.068-6.706,3.569-9.075,6.251a6.706,6.706,0,0,1-5.729,2.814q-24.16,2.388-48.468,2.809c-1.3.021-2.6.037-3.893.053a43.945,43.945,0,0,1-7.416-.36,6.806,6.806,0,0,1-4.406-2.079,4.08,4.08,0,0,1-.481-.772,7.652,7.652,0,0,1-.555-3.734,7.384,7.384,0,0,0,4.052,1.693,43.941,43.941,0,0,0,7.416.36c1.3-.016,2.6-.032,3.893-.053q11.187-.2,22.354-.809,13.076-.714,26.115-2a8.881,8.881,0,0,0,3.618-.894,6.889,6.889,0,0,0,1.613-1.37c.169-.18.333-.365.5-.55a59.035,59.035,0,0,0,6.6-8.453c.106-.18.254-.434.428-.751.074-.143.159-.3.243-.471a29.946,29.946,0,0,0,1.645-3.814c.2-.566.4-1.143.582-1.74.063-.212.127-.423.2-.645a63.309,63.309,0,0,0,2.063-10.473v-.016c.016-.106.026-.206.037-.312a61.512,61.512,0,0,0-.349-17.4c.032.079.069.164.1.249C317.32,363.227,317.79,371.764,316.875,380.005Z" transform="translate(-203.443 -299.271)" fill="#e88989"/>
                <path id="Trazado_1173637" data-name="Trazado 1173637" d="M290.5,291.474s-14.06,19.9-15.451,20.037S239.5,293.654,239.5,293.654V281.033h.005A35.116,35.116,0,0,1,265.2,294.119s5.284-13,14-18.476c3.015.756,6.146-.577,9.22-1.6C293.779,277.33,290.5,291.474,290.5,291.474Z" transform="translate(-205.98 -259.859)" fill="#e88989" opacity="0.25"/>
                <path id="Trazado_1173638" data-name="Trazado 1173638" d="M280.043,255.418a26.485,26.485,0,0,1-10.8,3.153,33.171,33.171,0,0,1-13.192-1.862c.28-1.761.381-3.57.809-5.284a2.169,2.169,0,0,1,.344-.846,2,2,0,0,1,.957-.577,27.878,27.878,0,0,1,7-1.169q6.935-.587,13.827-1.6A29.207,29.207,0,0,0,280.043,255.418Z" transform="translate(-213.775 -247.23)" fill="#e88989"/>
              </g>
              <g id="Grupo_1222008" data-name="Grupo 1222008" transform="translate(0 84.442)">
                <g id="Grupo_1222005" data-name="Grupo 1222005">
                  <path id="Trazado_1173639" data-name="Trazado 1173639" d="M288.546,303.263c-2.825,2.608-8.056,2.629-10.151,5.845a12.648,12.648,0,0,1,1.476,2.788c2.084,5.268,2.555,13.806,1.64,22.047-.011.106-.021.206-.037.312v.016a63.309,63.309,0,0,1-2.063,10.473c-.069.222-.132.434-.2.645-.185.6-.381,1.174-.582,1.74a29.952,29.952,0,0,1-1.645,3.814c-.085.169-.169.328-.243.471-.175.317-.323.571-.428.751a59.033,59.033,0,0,1-6.6,8.453c-.164.185-.328.37-.5.55a6.89,6.89,0,0,1-1.613,1.37,8.881,8.881,0,0,1-3.618.894q-13.028,1.285-26.115,2-11.172.611-22.354.809c-1.3.021-2.6.037-3.893.053a43.942,43.942,0,0,1-7.416-.36,6.806,6.806,0,0,1-4.406-2.079,4.079,4.079,0,0,1-.481-.772,5,5,0,0,1-.28-.725,9.458,9.458,0,0,1-.264-3.338c.021-.36.053-.714.085-1.058q.714-8.307.635-16.657c-.042-4.406-.27-8.881-1.666-13.065a2.483,2.483,0,0,0-.762-1.275,2.6,2.6,0,0,0-1.592-.349c-.682-.005-1.365-.005-2.047-.011q-9.973-.04-19.947-.09c-4.612-.021-13.1-.566-11.23-10.315,1.375-7.183,15.1-26.511,20.016-31.113,6.406-5.993,17.688-8.484,25.252-4.036,3.549,2.095,6.511,5.025,9.69,7.649a67.829,67.829,0,0,0,10.51,7.141,3.542,3.542,0,0,0,1.878.6c1.053-.069,1.809-1,2.417-1.862a91.413,91.413,0,0,0,8.437-14.7c1.423-3.116,12.859-15.509,29.976-6.125,13.06,7.162,19.238,16.784,20.434,20.529a4.892,4.892,0,0,1,.2.809A9.4,9.4,0,0,1,288.546,303.263Z" transform="translate(-161.994 -270.308)" fill="#fff"/>
                </g>
                <path id="Trazado_1173640" data-name="Trazado 1173640" d="M378.19,321.418c-2.825,2.608-8.056,2.629-10.151,5.845a12.647,12.647,0,0,1,1.476,2.788,10.511,10.511,0,0,1-1.116-1.428c-.682-1.079-.9-2.38-1.518-3.512a47.283,47.283,0,0,0-6.4-8.77,51.081,51.081,0,0,0-8.178-7.49c.54.333,9.509,6.336,11.719,7.948,3.329,2.428,7.68,2.174,10.711,1.19a9.194,9.194,0,0,0,5.779-5.546,4.892,4.892,0,0,1,.2.809A9.4,9.4,0,0,1,378.19,321.418Z" transform="translate(-251.638 -288.463)" fill="#eae8e8"/>
                <path id="Trazado_1173641" data-name="Trazado 1173641" d="M299.689,369.061a58.127,58.127,0,0,1-2.063,10.473c-.069.222-.132.434-.2.645a36.078,36.078,0,0,1-2.47,6.025c-.175.317-.323.571-.428.751a59.041,59.041,0,0,1-6.6,8.453,6.706,6.706,0,0,1-5.729,2.814c-15.255,1.508-31.05.354-46.342.016q-7.014-.159-14.028-.354c-1.307-.037-2.883.106-4.3-.011a9.85,9.85,0,0,1-.46-5.12q.714-8.307.635-16.657c-.042-4.406-.27-8.881-1.666-13.065a2.483,2.483,0,0,0-.762-1.275,2.6,2.6,0,0,0-1.592-.349c-.682-.005-1.365-.005-2.047-.011.032-.053-11.047-.031-10.985-.05,12.916-.695,19.725-11.346,22.613-17.18-2.909,14.546-.617,34.558-.617,34.558a33.058,33.058,0,0,0,1.374,6.168c1.206,2.862,3.2,3.734,5.943,3.794,3.921.086,19.085.57,25.221.284,10.2-.476,22.3,1.448,31.73-2.752C292.267,383.839,298.769,375.6,299.689,369.061Z" transform="translate(-180.209 -305.099)" fill="#eae8e8"/>
                <g id="Grupo_1222006" data-name="Grupo 1222006" transform="translate(66.992 33.622)">
                  <circle id="Elipse_14495" data-name="Elipse 14495" cx="2.446" cy="2.446" r="2.446" transform="translate(0.003)" fill="#dd219a"/>
                  <path id="Trazado_1173642" data-name="Trazado 1173642" d="M293.43,337.57a2.447,2.447,0,1,1-3.946-2.56,2.326,2.326,0,0,0-.111.719,2.446,2.446,0,0,0,2.444,2.449A2.418,2.418,0,0,0,293.43,337.57Z" transform="translate(-288.643 -334.408)" fill="#c40e8d"/>
                </g>
                <g id="Grupo_1222007" data-name="Grupo 1222007" transform="translate(70.078 47.998)">
                  <circle id="Elipse_14496" data-name="Elipse 14496" cx="2.446" cy="2.446" r="2.446" transform="translate(0.002)" fill="#dd219a"/>
                  <path id="Trazado_1173643" data-name="Trazado 1173643" d="M299.264,364.748a2.447,2.447,0,1,1-3.946-2.56,2.325,2.325,0,0,0-.111.719,2.446,2.446,0,0,0,2.444,2.449A2.418,2.418,0,0,0,299.264,364.748Z" transform="translate(-294.477 -361.586)" fill="#c40e8d"/>
                </g>
              </g>
              <path id="Trazado_1173644" data-name="Trazado 1173644" d="M296.24,437.453a138.214,138.214,0,0,1-52.681,2.2c-3.791-.605-26.758-3.546-33.009-1.428-9.447,3.2-13.9.495-17.038,10.506a15.374,15.374,0,0,0,.452,10.351,11.2,11.2,0,0,0,6.881,6.389c3.382,1.327,7.129,1.123,11.082,1.393a105.013,105.013,0,0,0,22.626-.9c10.576-1.577,20.978-4.082,31.4-6.431,11.753-2.648,24.425-5.269,38.587-6.379,6.782-1.577,4.555-8.456,2.329-10.982S299.506,436.638,296.24,437.453Z" transform="translate(-176.516 -264.534)" fill="#f4a3a2"/>
              <g id="Grupo_1222011" data-name="Grupo 1222011" transform="translate(7.511 113.118)">
                <path id="Trazado_1173645" data-name="Trazado 1173645" d="M327.074,449.573a9.8,9.8,0,0,0-2-4.036c-2.222-2.528-7.358-5.538-10.627-4.724a139.076,139.076,0,0,1-43.84,3.285q-4.348-.373-8.839-1.079c-3.322-.529-21.375-2.851-29.992-1.994a9.458,9.458,0,0,1-.264-3.338c8.511-.931,26.9,1.433,30.256,1.968a137.432,137.432,0,0,0,40.185.18,124.006,124.006,0,0,0,12.494-2.386c3.269-.815,8.405,2.2,10.627,4.724C326.455,443.738,327.83,446.965,327.074,449.573Z" transform="translate(-202.235 -377.651)" fill="#e88989"/>
                <g id="Grupo_1222009" data-name="Grupo 1222009">
                  <path id="Trazado_1173646" data-name="Trazado 1173646" d="M205.524,382.1a1.575,1.575,0,0,0-.37-.4,2.6,2.6,0,0,0-1.592-.349c-.682-.005-1.365-.005-2.047-.011q-9.973-.04-19.947-.09a18.232,18.232,0,0,1-5.374-.867c.011-1.391.026-2.819.053-4.269a28.774,28.774,0,0,0,3.93.243q9.973.04,19.947.09c.682.005,1.365.005,2.047.011a2.6,2.6,0,0,1,1.592.349,2.483,2.483,0,0,1,.762,1.275A27.565,27.565,0,0,1,205.524,382.1Z" transform="translate(-176.193 -348.821)" fill="#e88989"/>
                  <path id="Trazado_1173647" data-name="Trazado 1173647" d="M396.208,326.556a9.135,9.135,0,0,1-2.613,7.136c-2.592,2.4-7.22,2.608-9.579,5.12-.153-.481-.312-.942-.487-1.381a12.647,12.647,0,0,0-1.476-2.788c2.095-3.216,7.326-3.237,10.151-5.845a8.266,8.266,0,0,0,2.364-4.279Q395.425,325.52,396.208,326.556Z" transform="translate(-273.162 -324.52)" fill="#e88989"/>
                </g>
                <g id="Grupo_1222010" data-name="Grupo 1222010" transform="translate(27.107 60.036)">
                  <path id="Trazado_1173648" data-name="Trazado 1173648" d="M229.61,438.02a3.938,3.938,0,0,1,.57,1.917,5.452,5.452,0,0,1-.264,2.008,5.637,5.637,0,0,1-1.65,2.5,5.366,5.366,0,0,1-.826.563c.266-.623.571-1.161.811-1.725a15.434,15.434,0,0,0,.659-1.666,13.506,13.506,0,0,0,.443-1.729A17.1,17.1,0,0,0,229.61,438.02Z" transform="translate(-227.439 -438.02)" fill="#e88989"/>
                </g>
              </g>
              <g id="Grupo_1222016" data-name="Grupo 1222016" transform="translate(117.526 42.442)">
                <path id="Trazado_1173649" data-name="Trazado 1173649" d="M395.986,369.543c-5.287-1.988-8.125-6.961-9.177-12.4-1.6-8.283-.209-16.81.659-25.062.6-5.692,1.531-11.23,2.637-16.916a171.426,171.426,0,0,1,5.014-19.534c1.645-5.141,4.591-25.189,5.364-30.547.111-.762.217-1.518.323-2.28.032.063.063.132.1.2.783,1.613,2.026,1.857,3.83,1.931a63.379,63.379,0,0,0,8.019-.185,6.126,6.126,0,0,0,2.116-.444,3.678,3.678,0,0,0,1.18-.883c-.227,12-.714,26.866.1,35.72.968,10.637,2.093,21.275,2.28,31.97C419.007,364.73,404.989,372.929,395.986,369.543Z" transform="translate(-385.072 -224.771)" fill="#f4a3a2"/>
                <g id="Grupo_1222012" data-name="Grupo 1222012" transform="translate(0 70.856)">
                  <path id="Trazado_1173650" data-name="Trazado 1173650" d="M394.226,324.86c-1.8,7.05-3.339,14.123-4.508,21.264-.578,3.576-1.167,7.143-1.6,10.727-.224,1.795-.428,3.572-.609,5.384l-.581,5.416a98.841,98.841,0,0,0-.748,10.743,46.641,46.641,0,0,0,.257,5.325,27.769,27.769,0,0,0,.988,5.169,15.614,15.614,0,0,0,5.92,8.364c.356.255.735.48,1.111.708.388.2.779.436,1.164.591a9.9,9.9,0,0,0,2.547.6,12.164,12.164,0,0,0,2.672,0,10.994,10.994,0,0,0,2.637-.588,11.642,11.642,0,0,1-5.344,1.165,9.791,9.791,0,0,1-2.786-.413,14.888,14.888,0,0,1-2.555-1.2,15.412,15.412,0,0,1-2.283-1.663,16.214,16.214,0,0,1-1.939-2.07,15.483,15.483,0,0,1-1.547-2.38,19.1,19.1,0,0,1-1.155-2.59,22.8,22.8,0,0,1-.789-2.718c-.189-.915-.357-1.828-.477-2.749a48.559,48.559,0,0,1-.421-5.54,94.429,94.429,0,0,1,.645-10.985l.63-5.409c.2-1.8.406-3.63.681-5.431.55-3.612,1.185-7.2,1.959-10.763A132.4,132.4,0,0,1,394.226,324.86Z" transform="translate(-384.179 -324.86)" fill="#e88989"/>
                </g>
                <g id="Grupo_1222015" data-name="Grupo 1222015" transform="translate(5.107)">
                  <path id="Trazado_1173651" data-name="Trazado 1173651" d="M420.838,227.207a9.433,9.433,0,0,1-1.61,2.817,3.841,3.841,0,0,1-1.229.921,6.38,6.38,0,0,1-2.205.463,66.064,66.064,0,0,1-8.357.193c-1.88-.077-3.175-.331-3.991-2.012-.033-.066-.066-.138-.1-.2-.9-1.841-2.034-3.71-2.729-5.6-.9-2.437-.766-5.32-1.389-7.851-1.031-4.217-3.164-5.3-5.177-9.119a1.6,1.6,0,0,1-.215-.6c-.05-.667.744-1.108,1.411-1.075a6.425,6.425,0,0,1,4.691,2.756c.695.871.766.943,1.428,1.836.358.48,1.615,1.693,2.42,1.3.546-.264.424-1.9.485-2.42.1-.844.232-1.687.375-2.525.276-1.6.59-3.2.722-4.818.193-2.277-.177-4.565.1-6.842.127-1.053.568-3.517,2.057-3.523,2.288-.011,2.536,3.131,2.641,4.791.209,3.539.292,7.084.5,10.629.016.276,3.473.209,3.755.2a10.725,10.725,0,0,1,6.864,2.426,7.633,7.633,0,0,1,1.941,4.543C423.848,218.149,422.608,222.863,420.838,227.207Z" transform="translate(-393.834 -190.905)" fill="#f4a3a2"/>
                  <path id="Trazado_1173652" data-name="Trazado 1173652" d="M411.081,260.476c-.519-.5-1.189-.767-1.6-1.607-.033-.066-.066-.138-.1-.2-.9-1.841-2.034-3.71-2.729-5.6a50.938,50.938,0,0,0,4.126,5.9,11.172,11.172,0,0,0,5.534,3.319A7.208,7.208,0,0,1,411.081,260.476Z" transform="translate(-399.874 -220.184)" fill="#e88989"/>
                  <g id="Grupo_1222014" data-name="Grupo 1222014" transform="translate(9.805 15.849)">
                    <path id="Trazado_1173653" data-name="Trazado 1173653" d="M420.194,240.885a19.26,19.26,0,0,0-1.787-4.635,8.827,8.827,0,0,0-3.462-3.488,10.567,10.567,0,0,1-1.339-.715,3.054,3.054,0,0,1-1.235-2.215" transform="translate(-412.371 -225.09)" fill="none" stroke="#e88989" stroke-linecap="round" stroke-linejoin="round" stroke-miterlimit="10" stroke-width="1"/>
                    <g id="Grupo_1222013" data-name="Grupo 1222013" transform="translate(0.321 23.212)">
                      <path id="Trazado_1173654" data-name="Trazado 1173654" d="M412.977,264.749a8.2,8.2,0,0,0,1.322,1.238,8.1,8.1,0,0,0,1.519.905,6.922,6.922,0,0,0,.824.323l.423.14c.145.032.289.069.434.108.288.088.588.115.885.184.3.053.6.078.911.142a8.172,8.172,0,0,1-.927.117,6.283,6.283,0,0,1-.94-.036,6.018,6.018,0,0,1-1.829-.5,5.637,5.637,0,0,1-1.567-1.074A4.235,4.235,0,0,1,412.977,264.749Z" transform="translate(-412.977 -264.749)" fill="#e88989"/>
                    </g>
                    <path id="Trazado_1173655" data-name="Trazado 1173655" d="M437.545,226.5a22.238,22.238,0,0,1-1.386,4.9c-.235.57-.581,1.2-1.188,1.309a1.234,1.234,0,0,1-1.042-.369,2.576,2.576,0,0,1-.579-.98,11.615,11.615,0,0,1-.532-3.084,6.683,6.683,0,0,1-.722,2.528A2.278,2.278,0,0,1,429.908,232c-.765-.129-1.212-1.123-1.5-1.746a7.756,7.756,0,0,1-.442-3.575,3.1,3.1,0,0,1-.738,2.06,1.287,1.287,0,0,1-.933.525,1.066,1.066,0,0,1-.817-.476,2.735,2.735,0,0,1-.376-.9c-.536-1.986.123-7.017.123-7.017" transform="translate(-418.271 -220.867)" fill="none" stroke="#e88989" stroke-linecap="round" stroke-linejoin="round" stroke-miterlimit="10" stroke-width="1"/>
                    <path id="Trazado_1173656" data-name="Trazado 1173656" d="M440.559,223.258c-.113.522-.7,5.526-.888,7.244" transform="translate(-425.231 -221.993)" fill="none" stroke="#e88989" stroke-linecap="round" stroke-linejoin="round" stroke-miterlimit="10" stroke-width="1"/>
                    <path id="Trazado_1173657" data-name="Trazado 1173657" d="M431.284,221.43s-.481,4.079-.954,6.654" transform="translate(-420.83 -221.132)" fill="none" stroke="#e88989" stroke-linecap="round" stroke-linejoin="round" stroke-miterlimit="10" stroke-width="1"/>
                  </g>
                </g>
              </g>
              <g id="Grupo_1222022" data-name="Grupo 1222022" transform="translate(12.756)">
                <g id="Grupo_1222017" data-name="Grupo 1222017" transform="translate(15.711)">
                  <path id="Trazado_1173658" data-name="Trazado 1173658" d="M276.582,128.975c4.441,14.06,3.967,34.9-4.714,47.208-4.975,7.057-12.847,12.186-21.579,12.753a30.137,30.137,0,0,1-29.861-19.51,68.983,68.983,0,0,1-4.6-23.508c-.209-10.4,1.475-21.234,9.984-28.255,4.971-4.1,10.916-4.909,17.257-6.058,6.693-1.213,13.749-1.523,20.158.754C269.8,114.7,274.328,121.84,276.582,128.975Z" transform="translate(-215.811 -110.668)" fill="#f4a3a2"/>
                  <path id="Trazado_1173659" data-name="Trazado 1173659" d="M258.959,188.923a25.974,25.974,0,0,1-8.67,2.121,30.135,30.135,0,0,1-29.865-19.508,68.941,68.941,0,0,1-4.6-23.507c-.212-10.4,1.476-21.238,9.981-28.257a23.876,23.876,0,0,1,9.934-4.623,20.507,20.507,0,0,0-5.03,3.036c-8.506,7.019-10.193,17.852-9.981,28.252a68.97,68.97,0,0,0,4.6,23.512,30.135,30.135,0,0,0,29.865,19.508A24.185,24.185,0,0,0,258.959,188.923Z" transform="translate(-215.811 -112.779)" fill="#e88989"/>
                </g>
                <path id="Trazado_1173660" data-name="Trazado 1173660" d="M192.908,159.909c-1.15-.51-2.526-.269-3.957,1.2a9.7,9.7,0,0,0-2.173,4.43,16.17,16.17,0,0,0-.451,7.09c.579,3,2.8,6.587,6.291,6.318,2.948-.227,2.88-3.7,3.156-5.976.371-3.047.72-6.3-.125-9.3A5.692,5.692,0,0,0,192.908,159.909Z" transform="translate(-186.109 -133.748)" fill="#f4a3a2"/>
                <path id="Trazado_1173661" data-name="Trazado 1173661" d="M199.56,172.971c-.275,2.275-.212,5.75-3.158,5.977a4.759,4.759,0,0,1-1.069-.042c1.835-.915,1.82-3.74,2.052-5.681.37-3.047.719-6.295-.127-9.3a5.684,5.684,0,0,0-2.74-3.761,2.439,2.439,0,0,0-.376-.132,2.836,2.836,0,0,1,2.55-.122,5.659,5.659,0,0,1,2.74,3.761C200.279,166.671,199.93,169.924,199.56,172.971Z" transform="translate(-189.893 -133.747)" fill="#e88989"/>
                <g id="Grupo_1222021" data-name="Grupo 1222021" transform="translate(36.329 25.938)">
                  <g id="Grupo_1222018" data-name="Grupo 1222018" transform="translate(0 5.996)">
                    <path id="Trazado_1173662" data-name="Trazado 1173662" d="M260.762,176.081a6.879,6.879,0,0,1-1.016,3.777,4.924,4.924,0,0,0-3.946,0,6.924,6.924,0,0,1-1.01-3.777c0-2.788,1.338-5.041,2.983-5.041S260.762,173.293,260.762,176.081Z" transform="translate(-254.79 -171.04)" fill="#28183d"/>
                    <path id="Trazado_1173663" data-name="Trazado 1173663" d="M260.646,187.343a2.172,2.172,0,0,1-3.946,0,4.924,4.924,0,0,1,3.946,0Z" transform="translate(-255.69 -178.525)" fill="#f4a3a2"/>
                  </g>
                  <g id="Grupo_1222019" data-name="Grupo 1222019" transform="translate(26.987 5.996)">
                    <path id="Trazado_1173664" data-name="Trazado 1173664" d="M311.787,176.081a6.885,6.885,0,0,1-1.016,3.782,4.867,4.867,0,0,0-3.946,0,6.885,6.885,0,0,1-1.016-3.782c0-2.788,1.338-5.041,2.989-5.041S311.787,173.293,311.787,176.081Z" transform="translate(-305.81 -171.04)" fill="#28183d"/>
                    <path id="Trazado_1173665" data-name="Trazado 1173665" d="M311.676,187.348a2.176,2.176,0,0,1-3.946,0,4.867,4.867,0,0,1,3.946,0Z" transform="translate(-306.714 -178.525)" fill="#f4a3a2"/>
                  </g>
                  <g id="Grupo_1222020" data-name="Grupo 1222020" transform="translate(0.326)">
                    <path id="Trazado_1173666" data-name="Trazado 1173666" d="M312.371,160.731c-1.286-.978-2.884-1.591-5.319-.267" transform="translate(-279.734 -159.704)" fill="none" stroke="#28183d" stroke-linecap="round" stroke-linejoin="round" stroke-miterlimit="10" stroke-width="3"/>
                    <path id="Trazado_1173667" data-name="Trazado 1173667" d="M260.725,160.731c-1.286-.978-2.884-1.591-5.319-.267" transform="translate(-255.406 -159.704)" fill="none" stroke="#28183d" stroke-linecap="round" stroke-linejoin="round" stroke-miterlimit="10" stroke-width="3"/>
                  </g>
                  <path id="Trazado_1173668" data-name="Trazado 1173668" d="M287.727,180.387a15.919,15.919,0,0,0,4.134,9.365,5.432,5.432,0,0,1-6.563,1.582" transform="translate(-269.161 -169.446)" fill="none" stroke="#e88989" stroke-linecap="round" stroke-linejoin="round" stroke-miterlimit="10" stroke-width="2"/>
                  <path id="Trazado_1173669" data-name="Trazado 1173669" d="M270.21,215.967a8.078,8.078,0,0,0,10.432,4.672" transform="translate(-262.053 -186.206)" fill="none" stroke="#28183d" stroke-linecap="round" stroke-linejoin="round" stroke-miterlimit="10" stroke-width="2"/>
                  <ellipse id="Elipse_14497" data-name="Elipse 14497" cx="0.478" cy="0.793" rx="0.478" ry="0.793" transform="translate(30.489 8.223)" fill="#fff"/>
                  <ellipse id="Elipse_14498" data-name="Elipse 14498" cx="0.478" cy="0.793" rx="0.478" ry="0.793" transform="translate(3.392 8.223)" fill="#fff"/>
                </g>
                <circle id="Elipse_14499" data-name="Elipse 14499" cx="4.875" cy="4.875" r="4.875" transform="translate(26.904 40.337)" fill="#e88989"/>
                <circle id="Elipse_14500" data-name="Elipse 14500" cx="4.875" cy="4.875" r="4.875" transform="translate(68.074 40.337)" fill="#e88989"/>
              </g>
            </g>
            <g id="Grupo_1222024" data-name="Grupo 1222024" transform="translate(105.527)">
              <path id="Trazado_1173670" data-name="Trazado 1173670" d="M233.145,114.323c-7.932,5.8-16.666,11.023-22,19.719-3.5,5.7-5.839,13.132-11.643,15.646.358-8.023,1.954-15.907,3.545-23.745,1.521-7.5,3.077-15.1,6.352-21.875,3.021-6.253,7.394-11.57,11.875-16.647,2.821-3.2,5.811-6.406,9.562-8.071a21.819,21.819,0,0,1,10.5-1.364c2.9.211,6.083.861,7.9,3.367,3.453,4.762,1.192,12.871-1.3,17.461C244.4,105.313,238.792,110.191,233.145,114.323Z" transform="translate(-199.5 -73.184)" fill="#28183d"/>
              <path id="Trazado_1173671" data-name="Trazado 1173671" d="M256.812,90c3.453,4.762,1.192,12.871-1.3,17.461-3.532,6.5-9.139,11.378-14.786,15.51-7.932,5.8-18.616,11.431-23.952,20.127" transform="translate(-207.636 -78.89)" fill="none" stroke="#28183d" stroke-linecap="round" stroke-linejoin="round" stroke-miterlimit="10" stroke-width="2"/>
              <path id="Trazado_1173672" data-name="Trazado 1173672" d="M314.452,111.168c-.443.049-.891.084-1.335.106-7.833.377-15.555-2.793-21.717-7.647-5.257-4.145-8.52-11.384-14.07-14.793-5-3.072-10.364-3.941-12.682-10.214A13.906,13.906,0,0,1,264.7,69.2a47.582,47.582,0,0,1,4.765-.2c12.354.12,25.05,5.134,33.69,14.061A33.108,33.108,0,0,1,311.7,99C312.724,103.1,313.525,107.156,314.452,111.168Z" transform="translate(-229.811 -68.999)" fill="#28183d"/>
            </g>
            <g id="Grupo_1222032" data-name="Grupo 1222032" transform="translate(13.862 0.003)">
              <g id="Grupo_1222025" data-name="Grupo 1222025" transform="translate(105.197 14.455)">
                <path id="Trazado_1173673" data-name="Trazado 1173673" d="M253.647,96.333a59.472,59.472,0,0,1-5.022,9.46,70.21,70.21,0,0,1-6.5,8.549,57.059,57.059,0,0,1-7.853,7.338l-2.166,1.595c-.744.5-1.518.956-2.275,1.432l-1.148.694c-.394.212-.8.4-1.2.608q-1.2.608-2.4,1.181,1.127-.728,2.262-1.424c.376-.236.758-.462,1.128-.705l1.074-.788c.716-.524,1.45-1.018,2.15-1.558l2.057-1.678a72.2,72.2,0,0,0,7.582-7.4,95.256,95.256,0,0,0,6.607-8.3c1.013-1.454,2.016-2.918,2.963-4.42C251.883,99.426,252.772,97.888,253.647,96.333Z" transform="translate(-225.083 -96.333)" fill="#43345b"/>
              </g>
              <g id="Grupo_1222026" data-name="Grupo 1222026" transform="translate(88.141 11.767)">
                <path id="Trazado_1173674" data-name="Trazado 1173674" d="M192.838,121.443a69.277,69.277,0,0,0,8.759-5.965,37.559,37.559,0,0,0,7.026-7.776c1.016-1.436,1.962-2.935,2.942-4.42,1-1.475,1.986-2.966,3.1-4.367.551-.705,1.094-1.415,1.7-2.076s1.17-1.351,1.813-1.974c1.244-1.282,2.578-2.468,3.934-3.616a71.846,71.846,0,0,0-6.782,8.156c-2.049,2.873-3.8,5.948-5.838,8.9l-.782,1.094c-.261.364-.554.708-.83,1.064s-.549.714-.851,1.048l-.91,1a31.972,31.972,0,0,1-4.008,3.607A46.8,46.8,0,0,1,192.838,121.443Z" transform="translate(-192.838 -91.25)" fill="#43345b"/>
              </g>
              <g id="Grupo_1222027" data-name="Grupo 1222027" transform="translate(0 83.121)">
                <path id="Trazado_1173675" data-name="Trazado 1173675" d="M86.085,226.147a39.49,39.49,0,0,1-3.2,9.133,50.4,50.4,0,0,1-11.7,15.432,57.656,57.656,0,0,1-7.812,5.829,66.667,66.667,0,0,1-8.695,4.395l-2.28.855-1.141.423-1.161.367-2.321.732-2.356.6a82.545,82.545,0,0,1-19.207,2.379,100.1,100.1,0,0,0,19-3.177l2.314-.653,2.279-.76,1.139-.379,1.119-.435,2.234-.878a67.638,67.638,0,0,0,8.525-4.37,55.65,55.65,0,0,0,14.324-12.59,54.445,54.445,0,0,0,5.288-8.005A42.674,42.674,0,0,0,86.085,226.147Z" transform="translate(-26.206 -226.147)" fill="#43345b"/>
              </g>
              <g id="Grupo_1222028" data-name="Grupo 1222028" transform="translate(14.189 171.341)">
                <path id="Trazado_1173676" data-name="Trazado 1173676" d="M108.06,392.929l-.754,2.055-.388,1.026-.455,1c-.307.663-.6,1.335-.921,1.994l-1.044,1.934a45.661,45.661,0,0,1-5.048,7.2,56.438,56.438,0,0,1-13.388,11.375,76.957,76.957,0,0,1-7.757,4.163,81.454,81.454,0,0,1-8.177,3.229,79.013,79.013,0,0,1-17.1,3.784,87.013,87.013,0,0,0,8.52-1.918q4.208-1.151,8.3-2.645A84.642,84.642,0,0,0,85.5,418.614a62.306,62.306,0,0,0,7.057-5.035A54.027,54.027,0,0,0,98.83,407.6,51.573,51.573,0,0,0,108.06,392.929Z" transform="translate(-53.031 -392.929)" fill="#43345b"/>
              </g>
              <g id="Grupo_1222029" data-name="Grupo 1222029" transform="translate(226.063 142.549)">
                <path id="Trazado_1173677" data-name="Trazado 1173677" d="M453.583,338.5a68.482,68.482,0,0,1,7.408,14.657,60.272,60.272,0,0,1,3.581,16.091,47.25,47.25,0,0,1-.194,8.282,36.34,36.34,0,0,1-1.878,8.067c-.248.645-.457,1.305-.738,1.937l-.866,1.883c-.281.63-.662,1.211-.987,1.819l-.507.9c-.171.3-.378.577-.568.863l-1.166,1.7-1.3,1.6c-.217.265-.427.536-.651.8l-.709.746-1.428,1.475a39.221,39.221,0,0,0,8.134-13.99,42.451,42.451,0,0,0,1.8-16.011,65.816,65.816,0,0,0-3.3-15.893c-.866-2.578-1.848-5.121-2.96-7.61A75.451,75.451,0,0,0,453.583,338.5Z" transform="translate(-453.583 -338.496)" fill="#43345b"/>
              </g>
              <g id="Grupo_1222030" data-name="Grupo 1222030" transform="translate(131.316)">
                <path id="Trazado_1173678" data-name="Trazado 1173678" d="M285.75,91.042a35.546,35.546,0,0,0-1.329-6.2,33.563,33.563,0,0,0-2.362-5.816,32.32,32.32,0,0,0-3.358-5.3c-.614-.857-1.33-1.626-2.025-2.425a15.3,15.3,0,0,0-1.1-1.148q-.563-.564-1.116-1.15.658.454,1.309.929a13.038,13.038,0,0,1,1.266,1l1.192,1.092a14.424,14.424,0,0,1,1.108,1.18,24.175,24.175,0,0,1,2.011,2.546c.326.434.572.92.861,1.377l.419.7c.132.236.249.481.373.722.231.49.492.966.7,1.468l.61,1.505.5,1.545c.165.515.276,1.046.408,1.569A20.835,20.835,0,0,1,285.75,91.042Z" transform="translate(-274.462 -69.005)" fill="#43345b"/>
              </g>
              <g id="Grupo_1222031" data-name="Grupo 1222031" transform="translate(146.897 16.13)">
                <path id="Trazado_1173679" data-name="Trazado 1173679" d="M303.917,99.5a47.867,47.867,0,0,0,3.839,5.484c.7.865,1.413,1.714,2.161,2.534l1.127,1.224,1.178,1.174c.378.406.8.764,1.2,1.147s.808.761,1.238,1.111l1.263,1.086c.429.352.875.683,1.308,1.034.86.709,1.783,1.33,2.683,1.995s1.863,1.234,2.778,1.9c-1.025-.459-2.062-.917-3.052-1.46-.975-.567-1.977-1.1-2.894-1.768a36.807,36.807,0,0,1-5.267-4.292,35.956,35.956,0,0,1-4.384-5.194A25.579,25.579,0,0,1,303.917,99.5Z" transform="translate(-303.917 -99.5)" fill="#43345b"/>
              </g>
            </g>
          </g>
          <g id="Grupo_1222036" data-name="Grupo 1222036" transform="translate(200.443 0.595)">
            <path id="Trazado_1173680" data-name="Trazado 1173680" d="M418.09,161.481h-9.823a1.236,1.236,0,0,1-1.232-1.232v-.015A1.236,1.236,0,0,1,408.267,159h9.823a1.236,1.236,0,0,1,1.232,1.232v.015A1.236,1.236,0,0,1,418.09,161.481Z" transform="translate(-392.175 -111.989)" fill="none" stroke="#2b2a4c" stroke-linecap="round" stroke-linejoin="round" stroke-miterlimit="10" stroke-width="1.5"/>
            <path id="Trazado_1173681" data-name="Trazado 1173681" d="M418.09,165.913h-9.823a1.236,1.236,0,0,1-1.232-1.232v-.015a1.236,1.236,0,0,1,1.232-1.232h9.823a1.236,1.236,0,0,1,1.232,1.232v.015A1.236,1.236,0,0,1,418.09,165.913Z" transform="translate(-392.175 -114.077)" fill="none" stroke="#2b2a4c" stroke-linecap="round" stroke-linejoin="round" stroke-miterlimit="10" stroke-width="1.5"/>
            <path id="Trazado_1173682" data-name="Trazado 1173682" d="M418.09,170.345h-9.823a1.236,1.236,0,0,1-1.232-1.232V169.1a1.236,1.236,0,0,1,1.232-1.232h9.823a1.236,1.236,0,0,1,1.232,1.232v.015A1.236,1.236,0,0,1,418.09,170.345Z" transform="translate(-392.175 -116.164)" fill="none" stroke="#2b2a4c" stroke-linecap="round" stroke-linejoin="round" stroke-miterlimit="10" stroke-width="1.5"/>
            <path id="Trazado_1173683" data-name="Trazado 1173683" d="M411.391,173.571a4.822,4.822,0,0,0,7.732,0Z" transform="translate(-394.226 -118.852)" fill="none" stroke="#2b2a4c" stroke-linecap="round" stroke-linejoin="round" stroke-miterlimit="10" stroke-width="1.5"/>
            <path id="Trazado_1173684" data-name="Trazado 1173684" d="M406.654,85.338c-9.7,0-13.527,8.353-13.527,13.15s3.5,10.078,5.336,14.39a28.5,28.5,0,0,1,1.756,8.607,2.037,2.037,0,0,0,2.034,1.9h8.8a2.037,2.037,0,0,0,2.034-1.9,28.522,28.522,0,0,1,1.756-8.607c1.832-4.312,5.336-9.593,5.336-14.39S416.355,85.338,406.654,85.338Z" transform="translate(-385.623 -77.29)" fill="#f4d862"/>
            <g id="Grupo_1222034" data-name="Grupo 1222034" transform="translate(10.001 10.503)">
              <path id="Trazado_1173685" data-name="Trazado 1173685" d="M410.049,90.159a21.419,21.419,0,0,0-4.348,1.4,12.487,12.487,0,0,0-3.544,2.511,15.072,15.072,0,0,0-2.583,3.541,18.112,18.112,0,0,0-1.588,4.279,9.309,9.309,0,0,1,.452-4.772,10.967,10.967,0,0,1,2.595-4.167,9.86,9.86,0,0,1,4.225-2.543A10.074,10.074,0,0,1,410.049,90.159Z" transform="translate(-397.849 -89.979)" fill="#ffeea4"/>
            </g>
            <path id="Trazado_1173686" data-name="Trazado 1173686" d="M426.419,100.521c0,4.794-3.5,10.078-5.332,14.388a28.486,28.486,0,0,0-1.756,8.609,2.041,2.041,0,0,1-2.038,1.9h-8.8a2.033,2.033,0,0,1-2.033-1.9c-.021-.319-.048-.671-.085-1.043h7.907a2.036,2.036,0,0,0,2.033-1.9,28.467,28.467,0,0,1,1.756-8.609c1.83-4.31,5.337-9.594,5.337-14.388a14.02,14.02,0,0,0-2.778-7.923A13.99,13.99,0,0,1,426.419,100.521Z" transform="translate(-391.863 -79.323)" fill="#eac839"/>
            <path id="Trazado_1173687" data-name="Trazado 1173687" d="M413.684,137.706V125.418c0-1.94,1.994-11.318,5.336-9.431s-2.91,8.838-5.767,9-6.413-4.8-4.8-7.6,5.39,3.341,5.228,8.461" transform="translate(-392.653 -91.61)" fill="none" stroke="#2b2a4c" stroke-miterlimit="10" stroke-width="2"/>
            <g id="Grupo_1222035" data-name="Grupo 1222035">
              <line id="Línea_669" data-name="Línea 669" y1="4.132" transform="translate(21.031)" fill="none" stroke="#eac839" stroke-linecap="round" stroke-linejoin="round" stroke-miterlimit="10" stroke-width="1.5"/>
              <line id="Línea_670" data-name="Línea 670" y1="3.702" x2="1.834" transform="translate(28.144 2.246)" fill="none" stroke="#eac839" stroke-linecap="round" stroke-linejoin="round" stroke-miterlimit="10" stroke-width="1.5"/>
              <line id="Línea_671" data-name="Línea 671" y1="2.502" x2="3.288" transform="translate(34.555 7.59)" fill="none" stroke="#eac839" stroke-linecap="round" stroke-linejoin="round" stroke-miterlimit="10" stroke-width="1.5"/>
              <line id="Línea_672" data-name="Línea 672" y1="0.783" x2="4.057" transform="translate(37.881 16.461)" fill="none" stroke="#eac839" stroke-linecap="round" stroke-linejoin="round" stroke-miterlimit="10" stroke-width="1.5"/>
              <line id="Línea_673" data-name="Línea 673" x1="1.835" y1="3.702" transform="translate(11.959 2.246)" fill="none" stroke="#eac839" stroke-linecap="round" stroke-linejoin="round" stroke-miterlimit="10" stroke-width="1.5"/>
              <line id="Línea_674" data-name="Línea 674" x1="3.288" y1="2.502" transform="translate(4.094 7.59)" fill="none" stroke="#eac839" stroke-linecap="round" stroke-linejoin="round" stroke-miterlimit="10" stroke-width="1.5"/>
              <line id="Línea_675" data-name="Línea 675" x1="4.057" y1="0.783" transform="translate(0 16.461)" fill="none" stroke="#eac839" stroke-linecap="round" stroke-linejoin="round" stroke-miterlimit="10" stroke-width="1.5"/>
            </g>
          </g>
          <g id="Grupo_1222057" data-name="Grupo 1222057" transform="translate(8.486 26.797)">
            <g id="Grupo_1222037" data-name="Grupo 1222037" transform="translate(0 31.02)">
              <path id="Trazado_1173688" data-name="Trazado 1173688" d="M20.891,188.046l.516,4.333,4.333.516-4.333.516-.516,4.333-.516-4.333-4.333-.516,4.333-.516Z" transform="translate(-16.042 -182.892)" fill="#fff"/>
              <path id="Trazado_1173689" data-name="Trazado 1173689" d="M44.357,215.629l.3,2.486,2.486.3-2.486.3-.3,2.486-.3-2.486-2.486-.3,2.486-.3Z" transform="translate(-28.069 -195.885)" fill="#fff"/>
              <path id="Trazado_1173690" data-name="Trazado 1173690" d="M212.1,255.836l.3,2.485,2.486.3-2.486.3-.3,2.486-.3-2.486-2.486-.3,2.486-.3Z" transform="translate(-107.085 -214.824)" fill="#fff"/>
              <path id="Trazado_1173691" data-name="Trazado 1173691" d="M350.262,178.3l.23,1.926,1.926.23-1.926.23-.23,1.926-.23-1.926-1.926-.23,1.926-.23Z" transform="translate(-172.459 -178.303)" fill="#fff"/>
              <path id="Trazado_1173692" data-name="Trazado 1173692" d="M437.3,473.121l.3,2.486,2.486.3-2.486.3-.3,2.486L437,476.2l-2.486-.3,2.486-.3Z" transform="translate(-213.163 -317.175)" fill="#fff"/>
              <path id="Trazado_1173693" data-name="Trazado 1173693" d="M481.911,376.119l.219,1.842,1.843.22-1.843.22-.219,1.843-.22-1.843-1.842-.22,1.842-.22Z" transform="translate(-234.516 -271.483)" fill="#fff"/>
              <path id="Trazado_1173694" data-name="Trazado 1173694" d="M147.154,396.378l.174,1.46,1.46.174-1.46.174-.174,1.46-.173-1.46-1.46-.174,1.46-.174Z" transform="translate(-77.032 -281.026)" fill="#fff"/>
              <path id="Trazado_1173695" data-name="Trazado 1173695" d="M40.947,338.5l.307,2.581,2.581.307-2.581.308-.307,2.581-.308-2.581-2.581-.308,2.581-.307Z" transform="translate(-26.413 -253.761)" fill="#fff"/>
            </g>
            <g id="Grupo_1222038" data-name="Grupo 1222038" transform="translate(58.142 166.124)">
              <circle id="Elipse_14501" data-name="Elipse 14501" cx="2.039" cy="2.039" r="2.039" transform="translate(10.907 10.416)" fill="none" stroke="#fff" stroke-miterlimit="10" stroke-width="1.5"/>
              <circle id="Elipse_14502" data-name="Elipse 14502" cx="2.039" cy="2.039" r="2.039" transform="translate(12.5)" fill="none" stroke="#fff" stroke-miterlimit="10" stroke-width="1.5"/>
              <circle id="Elipse_14503" data-name="Elipse 14503" cx="2.039" cy="2.039" r="2.039" transform="translate(19.324 10.416)" fill="none" stroke="#fff" stroke-miterlimit="10" stroke-width="1.5"/>
              <circle id="Elipse_14504" data-name="Elipse 14504" cx="1.652" cy="1.652" r="1.652" transform="translate(6.032 7.964)" fill="none" stroke="#fff" stroke-miterlimit="10" stroke-width="1.5"/>
              <circle id="Elipse_14505" data-name="Elipse 14505" cx="1.652" cy="1.652" r="1.652" transform="translate(0 15.016)" fill="none" stroke="#fff" stroke-miterlimit="10" stroke-width="1.5"/>
              <circle id="Elipse_14506" data-name="Elipse 14506" cx="1.652" cy="1.652" r="1.652" transform="translate(13.332 18.851)" fill="none" stroke="#fff" stroke-miterlimit="10" stroke-width="1.5"/>
              <path id="Trazado_1173696" data-name="Trazado 1173696" d="M151.166,447.8c.037.007.837-6.376.837-6.376" transform="translate(-137.834 -437.351)" fill="none" stroke="#fff" stroke-miterlimit="10" stroke-width="1.5"/>
              <line id="Línea_676" data-name="Línea 676" x2="4.34" transform="translate(14.984 12.455)" fill="none" stroke="#fff" stroke-miterlimit="10" stroke-width="1.5"/>
              <line id="Línea_677" data-name="Línea 677" x2="2.097" y2="0.951" transform="translate(9.104 10.453)" fill="none" stroke="#fff" stroke-miterlimit="10" stroke-width="1.5"/>
              <line id="Línea_678" data-name="Línea 678" y1="2.857" x2="7.869" transform="translate(3.226 13.308)" fill="none" stroke="#fff" stroke-miterlimit="10" stroke-width="1.5"/>
              <line id="Línea_679" data-name="Línea 679" x2="1.331" y2="4.372" transform="translate(13.185 14.479)" fill="none" stroke="#fff" stroke-miterlimit="10" stroke-width="1.5"/>
            </g>
            <g id="Grupo_1222039" data-name="Grupo 1222039" transform="translate(3.055 69.379)">
              <circle id="Elipse_14507" data-name="Elipse 14507" cx="1.686" cy="1.686" r="1.686" transform="translate(8.336 6.959)" fill="none" stroke="#f4ebf0" stroke-miterlimit="10" stroke-width="1.5"/>
              <circle id="Elipse_14508" data-name="Elipse 14508" cx="1.686" cy="1.686" r="1.686" transform="translate(0 9.376)" fill="none" stroke="#f4ebf0" stroke-miterlimit="10" stroke-width="1.5"/>
              <circle id="Elipse_14509" data-name="Elipse 14509" cx="1.686" cy="1.686" r="1.686" transform="translate(8.336)" fill="none" stroke="#f4ebf0" stroke-miterlimit="10" stroke-width="1.5"/>
              <circle id="Elipse_14510" data-name="Elipse 14510" cx="1.366" cy="1.366" r="1.366" transform="translate(12.14 16.616)" fill="none" stroke="#f4ebf0" stroke-miterlimit="10" stroke-width="1.5"/>
              <circle id="Elipse_14511" data-name="Elipse 14511" cx="1.366" cy="1.366" r="1.366" transform="translate(15.311 5.593)" fill="none" stroke="#f4ebf0" stroke-miterlimit="10" stroke-width="1.5"/>
              <line id="Línea_680" data-name="Línea 680" x1="5.07" y2="1.602" transform="translate(3.343 9.024)" fill="none" stroke="#f4ebf0" stroke-miterlimit="10" stroke-width="1.5"/>
              <line id="Línea_681" data-name="Línea 681" y1="3.588" transform="translate(10.022 3.371)" fill="none" stroke="#f4ebf0" stroke-miterlimit="10" stroke-width="1.5"/>
              <line id="Línea_682" data-name="Línea 682" x1="2.362" y1="6.506" transform="translate(10.728 10.175)" fill="none" stroke="#f4ebf0" stroke-miterlimit="10" stroke-width="1.5"/>
              <line id="Línea_683" data-name="Línea 683" y1="1.1" x2="3.615" transform="translate(11.696 7.347)" fill="none" stroke="#f4ebf0" stroke-miterlimit="10" stroke-width="1.5"/>
            </g>
            <path id="Trazado_1173697" data-name="Trazado 1173697" d="M194.49,174.508c.066-.68.193-1.9-.649-2.172a1.663,1.663,0,0,0-1.2.112,2.284,2.284,0,0,0-1.087,2.512c.187.966,2.3,3.628,2.963,4.353" transform="translate(-98.696 -144.442)" fill="none" stroke="#e88989" stroke-linecap="round" stroke-linejoin="round" stroke-miterlimit="10" stroke-width="1"/>
            <g id="Grupo_1222043" data-name="Grupo 1222043" transform="translate(71.955 49.707)">
              <g id="Grupo_1222041" data-name="Grupo 1222041">
                <g id="Grupo_1222040" data-name="Grupo 1222040">
                  <path id="Trazado_1173698" data-name="Trazado 1173698" d="M152.766,220.677c-1.69,3.727-.1,7.579,2.8,10.162,1.893,1.685,8.274,5.651,10.614,2.963,1.9-2.186-.41-5.55,3.057-6.505a5.013,5.013,0,0,0,3.478-3.577c.476-1.991,1.045-4.447.57-6.483a4.521,4.521,0,0,0-3.494-3.573,5.02,5.02,0,0,0-4.169,1.855,5.107,5.107,0,0,1-1.255,1.167c-1.055.563-2.328.082-3.5-.135a7.635,7.635,0,0,0-7.493,3.055A6.794,6.794,0,0,0,152.766,220.677Z" transform="translate(-152.075 -213.632)" fill="none" stroke="#fff" stroke-miterlimit="10" stroke-width="1.5"/>
                  <path id="Trazado_1173699" data-name="Trazado 1173699" d="M181.562,229.621a1.332,1.332,0,0,0-2.629-.425,1.332,1.332,0,0,0,2.629.425Z" transform="translate(-164.718 -220.447)" fill="none" stroke="#fff" stroke-miterlimit="10" stroke-width="1.5"/>
                  <path id="Trazado_1173700" data-name="Trazado 1173700" d="M164.115,225.685a2.078,2.078,0,0,1,1.7,2.434,2.1,2.1,0,0,1-4.133-.734A2.065,2.065,0,0,1,164.115,225.685Z" transform="translate(-156.589 -219.294)" fill="none" stroke="#fff" stroke-miterlimit="10" stroke-width="1.5"/>
                  <path id="Trazado_1173701" data-name="Trazado 1173701" d="M169.113,241.468a1.05,1.05,0,0,1,1.218-.9,1.074,1.074,0,1,1-.334,2.123A1.052,1.052,0,0,1,169.113,241.468Z" transform="translate(-160.094 -226.315)" fill="none" stroke="#fff" stroke-miterlimit="10" stroke-width="1.5"/>
                </g>
              </g>
              <g id="Grupo_1222042" data-name="Grupo 1222042" transform="translate(18.67 10.314)">
                <line id="Línea_684" data-name="Línea 684" x2="14.707" y2="11.544" transform="translate(4.953)" fill="none" stroke="#fff" stroke-linecap="round" stroke-linejoin="round" stroke-miterlimit="10" stroke-width="1.5"/>
                <line id="Línea_685" data-name="Línea 685" x2="5.51" y2="4.325" transform="translate(0 8.025)" fill="none" stroke="#fff" stroke-linecap="round" stroke-linejoin="round" stroke-miterlimit="10" stroke-width="1.5"/>
              </g>
            </g>
            <g id="Grupo_1222044" data-name="Grupo 1222044" transform="translate(177.742 44.943)">
              <line id="Línea_686" data-name="Línea 686" x2="12.263" y2="10.491" transform="translate(58.146 111.049)" fill="none" stroke="#fff" stroke-linecap="round" stroke-linejoin="round" stroke-miterlimit="10" stroke-width="1.5"/>
              <line id="Línea_687" data-name="Línea 687" x2="12.263" y2="10.491" transform="translate(55.82 97.812)" fill="none" stroke="#fff" stroke-linecap="round" stroke-linejoin="round" stroke-miterlimit="10" stroke-width="1.5"/>
              <line id="Línea_688" data-name="Línea 688" x2="6.411" y2="4.367" fill="none" stroke="#fff" stroke-linecap="round" stroke-linejoin="round" stroke-miterlimit="10" stroke-width="1.5"/>
            </g>
            <g id="Grupo_1222045" data-name="Grupo 1222045" transform="translate(8.473)" opacity="0.8">
              <circle id="Elipse_14512" data-name="Elipse 14512" cx="0.473" cy="0.473" r="0.473" transform="translate(31.717 80.593)" fill="#fff"/>
              <circle id="Elipse_14513" data-name="Elipse 14513" cx="0.473" cy="0.473" r="0.473" transform="translate(92.899)" fill="#fff"/>
              <circle id="Elipse_14514" data-name="Elipse 14514" cx="0.473" cy="0.473" r="0.473" transform="translate(155.845 71.129)" fill="#fff"/>
              <circle id="Elipse_14515" data-name="Elipse 14515" cx="0.473" cy="0.473" r="0.473" transform="translate(222.02 163.991)" fill="#fff"/>
              <circle id="Elipse_14516" data-name="Elipse 14516" cx="0.303" cy="0.303" r="0.303" transform="translate(225.954 112.479)" fill="#fff"/>
              <circle id="Elipse_14517" data-name="Elipse 14517" cx="0.473" cy="0.473" r="0.473" transform="translate(67.129 47.312)" fill="#fff"/>
              <circle id="Elipse_14518" data-name="Elipse 14518" cx="0.473" cy="0.473" r="0.473" transform="translate(74.884 95.525)" fill="#fff"/>
              <circle id="Elipse_14519" data-name="Elipse 14519" cx="0.473" cy="0.473" r="0.473" transform="translate(36.826 157.308)" fill="#fff"/>
              <circle id="Elipse_14520" data-name="Elipse 14520" cx="0.473" cy="0.473" r="0.473" transform="translate(0 190.51)" fill="#fff"/>
            </g>
            <g id="Grupo_1222051" data-name="Grupo 1222051" transform="translate(29.322 67.479)">
              <g id="Grupo_1222046" data-name="Grupo 1222046" transform="translate(11.811)">
                <path id="Trazado_1173702" data-name="Trazado 1173702" d="M106.525,300.9s14.943-6.347,13.224-19.571-13.621-13.753-16.993-12.893-9.389,3.57-8.926,8.926,10.071,5.354,14.348,2.248c5.554-4.033,6.246-14.2,1.719-20.563-2.446-3.438-8.86-6.943-8.86-6.943" transform="translate(-93.805 -249.526)" fill="none" stroke="#fff" stroke-linecap="round" stroke-linejoin="round" stroke-miterlimit="10" stroke-width="1.5"/>
                <path id="Trazado_1173703" data-name="Trazado 1173703" d="M103.587,251.924l-1.984-4.1,4.694-.6" transform="translate(-97.478 -247.23)" fill="none" stroke="#fff" stroke-linecap="round" stroke-linejoin="round" stroke-miterlimit="10" stroke-width="1.5"/>
              </g>
              <g id="Grupo_1222050" data-name="Grupo 1222050" transform="translate(0 43.242)">
                <g id="Grupo_1222047" data-name="Grupo 1222047" transform="translate(0 11.082)">
                  <path id="Trazado_1173704" data-name="Trazado 1173704" d="M85.423,367.773l2.03,2.048,5.982-19.892-20.8,4.942,2.847,2.873a2.226,2.226,0,0,1-.014,3.148l-3.994,3.958" transform="translate(-71.476 -349.929)" fill="none" stroke="#fff" stroke-miterlimit="10" stroke-width="1.5"/>
                  <path id="Trazado_1173705" data-name="Trazado 1173705" d="M92.466,384.068,89.618,381.2a2.226,2.226,0,0,0-3.148-.014l-3.994,3.958" transform="translate(-76.658 -364.346)" fill="none" stroke="#fff" stroke-miterlimit="10" stroke-width="1.5"/>
                  <line id="Línea_689" data-name="Línea 689" x1="5.252" y2="5.205" transform="translate(16.607 0.081)" fill="none" stroke="#fff" stroke-miterlimit="10" stroke-width="1.5"/>
                  <circle id="Elipse_14521" data-name="Elipse 14521" cx="1.111" cy="1.111" r="1.111" transform="translate(14.869 4.795)" fill="none" stroke="#fff" stroke-miterlimit="10" stroke-width="1.5"/>
                </g>
                <g id="Grupo_1222049" data-name="Grupo 1222049" transform="translate(15.397)">
                  <rect id="Rectángulo_420532" data-name="Rectángulo 420532" width="2.979" height="2.979" transform="matrix(0.704, 0.71, -0.71, 0.704, 8.695, 6.655)" fill="#fff"/>
                  <g id="Grupo_1222048" data-name="Grupo 1222048">
                    <line id="Línea_690" data-name="Línea 690" x2="15.077" y2="15.138" transform="translate(0.72 0.72)" fill="none" stroke="#fff" stroke-miterlimit="10" stroke-width="1.5"/>
                    <circle id="Elipse_14522" data-name="Elipse 14522" cx="0.72" cy="0.72" r="0.72" fill="#fff"/>
                    <circle id="Elipse_14523" data-name="Elipse 14523" cx="0.72" cy="0.72" r="0.72" transform="translate(15.076 15.137)" fill="#fff"/>
                  </g>
                </g>
              </g>
            </g>
            <g id="Grupo_1222053" data-name="Grupo 1222053" transform="translate(173.907 59.447)">
              <circle id="Elipse_14524" data-name="Elipse 14524" cx="1.864" cy="1.864" r="1.864" transform="translate(6.774 3.296)" fill="none" stroke="#f4ebf0" stroke-miterlimit="10" stroke-width="1.5"/>
              <circle id="Elipse_14525" data-name="Elipse 14525" cx="1.864" cy="1.864" r="1.864" fill="none" stroke="#f4ebf0" stroke-miterlimit="10" stroke-width="1.5"/>
              <g id="Grupo_1222052" data-name="Grupo 1222052" transform="translate(10.98 13.975)">
                <circle id="Elipse_14526" data-name="Elipse 14526" cx="1.511" cy="1.511" r="1.511" fill="none" stroke="#f4ebf0" stroke-miterlimit="10" stroke-width="1.5"/>
              </g>
              <circle id="Elipse_14527" data-name="Elipse 14527" cx="1.511" cy="1.511" r="1.511" transform="translate(14.487 1.785)" fill="none" stroke="#f4ebf0" stroke-miterlimit="10" stroke-width="1.5"/>
              <line id="Línea_691" data-name="Línea 691" x1="3.522" y1="1.828" transform="translate(3.519 2.723)" fill="none" stroke="#f4ebf0" stroke-miterlimit="10" stroke-width="1.5"/>
              <line id="Línea_692" data-name="Línea 692" x1="2.612" y1="7.195" transform="translate(9.418 6.852)" fill="none" stroke="#f4ebf0" stroke-miterlimit="10" stroke-width="1.5"/>
              <line id="Línea_693" data-name="Línea 693" y1="1.217" x2="3.997" transform="translate(10.489 3.724)" fill="none" stroke="#f4ebf0" stroke-miterlimit="10" stroke-width="1.5"/>
            </g>
            <g id="Grupo_1222056" data-name="Grupo 1222056" transform="translate(4.491 149.86)">
              <circle id="Elipse_14528" data-name="Elipse 14528" cx="10.966" cy="10.966" r="10.966" transform="translate(5.39 6.421)" fill="#28183d"/>
              <path id="Trazado_1173706" data-name="Trazado 1173706" d="M51.778,421.84l.077.1c4.964,6.658,7.2,12.549,5.115,14.558-2.766,2.668-12.1-2.519-20.839-11.584s-13.588-18.577-10.822-21.244c2.1-2.022,7.965.469,14.49,5.741" transform="translate(-24.532 -402.973)" fill="none" stroke="#fff" stroke-miterlimit="10" stroke-width="1.5"/>
              <g id="Grupo_1222055" data-name="Grupo 1222055" transform="translate(5.39 6.421)">
                <g id="Grupo_1222054" data-name="Grupo 1222054" clip-path="url(#clip-path-2)">
                  <path id="Trazado_1173707" data-name="Trazado 1173707" d="M60.241,442.175s-1.108-.828-1.729-1.289-1.632-.852-2.076-.408-.887,1.118-1.65.994-1.171-1.863-1.349-2.8a1.236,1.236,0,0,0-2.13-.8,15.831,15.831,0,0,1-3.8,2.52c-1.047.3-2.182.958-1.934,2.094s1.561,1.437,3.088,1.437a5.2,5.2,0,0,1,3.017.674c.408.355,3.125,2.23,3.125,2.23" transform="translate(-39.818 -425.652)" fill="none" stroke="#fff" stroke-miterlimit="10" stroke-width="1.5"/>
                  <path id="Trazado_1173708" data-name="Trazado 1173708" d="M47.506,428.216a20.4,20.4,0,0,0-.816-2.094,1.275,1.275,0,0,0-2.041-.568A4.648,4.648,0,0,0,42.8,427.4c-.249.656-1.029.834-1.97.71s-1.757.515-1.7,1.118a1.378,1.378,0,0,0,1.455,1.351c1.1.069,3.922.535,4.632,0S47.864,429.224,47.506,428.216Z" transform="translate(-36.798 -419.885)" fill="none" stroke="#fff" stroke-miterlimit="10" stroke-width="1.5"/>
                  <path id="Trazado_1173709" data-name="Trazado 1173709" d="M66.233,420.9s-1.682.025-2.188,0a2.912,2.912,0,0,0-1.8,1.08,1.432,1.432,0,0,1-1.9.147c-.492-.426-2-2.023-2.209-2.262a1.1,1.1,0,0,1,0-1.424c.466-.545,1.4-1.778,1.185-2.679" transform="translate(-45.627 -415.417)" fill="none" stroke="#fff" stroke-miterlimit="10" stroke-width="1.5"/>
                </g>
                <circle id="Elipse_14530" data-name="Elipse 14530" cx="10.966" cy="10.966" r="10.966" fill="none" stroke="#fff" stroke-miterlimit="10" stroke-width="1.5"/>
              </g>
              <path id="Trazado_1173710" data-name="Trazado 1173710" d="M25.309,404.3c-2.766,2.668,2.079,12.179,10.822,21.244S54.2,439.793,56.97,437.126" transform="translate(-24.532 -403.597)" fill="none" stroke="#fff" stroke-miterlimit="10" stroke-width="1.5"/>
              <circle id="Elipse_14531" data-name="Elipse 14531" cx="2.915" cy="2.915" r="2.915" transform="translate(23.569 30.376)" fill="#28183d" stroke="#fff" stroke-miterlimit="10" stroke-width="1.5"/>
            </g>
          </g>
        </g>
      </g>
    </g>
  </g>
</svg>
