<svg xmlns="http://www.w3.org/2000/svg" xmlns:xlink="http://www.w3.org/1999/xlink" width="190" height="164" viewBox="0 0 190 164">
  <defs>
    <clipPath id="clip-path">
      <rect id="Rectángulo_420421" data-name="Rectángulo 420421" width="190" height="164" transform="translate(180 3342)" fill="#fff" stroke="#707070" stroke-width="1"/>
    </clipPath>
  </defs>
  <g id="Enmascarar_grupo_1211481" data-name="Enmascarar grupo 1211481" transform="translate(-180 -3342)" clip-path="url(#clip-path)">
    <g id="Grupo_1221238" data-name="Grupo 1221238" transform="translate(-2.5)">
      <rect id="Rectángulo_420420" data-name="Rectángulo 420420" width="133" height="143" rx="18" transform="translate(211 3376)" fill="#86b60c"/>
      <g id="bulbo" transform="matrix(0.966, -0.259, 0.259, 0.966, -19.958, 3338.127)">
        <path id="Trazado_1172531" data-name="Trazado 1172531" d="M292.593,170.8c1.292-1.347,2.652-2.7,3.968-4.014,5.03-5.013,10.231-10.2,13.75-16.906,8.924-17.016.729-39.349-11.982-50.283-8.626-7.42-20.762-11.675-33.3-11.675a53.548,53.548,0,0,0-20.673,4.07C226.747,99.43,216.52,115.464,216.3,135.98c-.148,13.723,9.923,23.7,17.276,30.981.706.7,1.495,1.42,2.329,2.183,2.954,2.7,7,6.4,7.049,9.408.014.874-.022,1.763-.06,2.7-.031.774-.063,1.563-.068,2.368a14.384,14.384,0,0,0-3.29,16.629c-3.155,5.758-1.785,12.824,3.649,17.51a22.173,22.173,0,0,0,10.085,4.609,12.884,12.884,0,0,0,11.847,7.552h0a11.708,11.708,0,0,0,11.262-7.486,26.826,26.826,0,0,0,11.8-5.592,14.777,14.777,0,0,0,5.535-10.734,11.707,11.707,0,0,0-2.106-7.033,13.968,13.968,0,0,0,1.015-9.555,13.206,13.206,0,0,0-5.43-7.46c-.01-1.02-.059-2.1-.148-3.287-.168-2.216,2.266-4.666,4.413-6.827C291.853,171.554,292.235,171.17,292.593,170.8Z" transform="translate(0 0)" fill="#fff"/>
        <g id="Grupo_1221237" data-name="Grupo 1221237" transform="translate(219.671 91.293)">
          <path id="Trazado_1172532" data-name="Trazado 1172532" d="M252.157,180.77c3.579,3.546,10.289,8.466,10.378,13.934.037,2.251-.223,4.483-.089,6.678a11.211,11.211,0,0,0-2.8,15.256c-3.609,4.685-2.6,10.859,1.948,14.777,2.747,2.368,6.519,3.583,10.426,4.207,2.191,9.093,15.821,9.842,17.889.244a1.1,1.1,0,0,0,.017-.149,24.759,24.759,0,0,0,12.294-5.246c4.722-3.968,6.112-10.469,1.513-14.776,3.755-5.717,2.658-12.29-3.737-15.529a40.185,40.185,0,0,0-.1-4.927c-.325-4.3,3.769-7.748,6.474-10.569,6.132-6.4,12.988-12.188,17.165-20.152,7.773-14.82.9-35.757-11.195-46.158-13.431-11.552-34.352-13.859-50.456-7.055-17.176,7.257-25.8,22.6-26,40.919-.128,11.905,8.384,20.731,16.276,28.547Z" transform="translate(-235.88 -107.5)" fill="#68182b"/>
          <path id="Trazado_1172533" data-name="Trazado 1172533" d="M458.186,852.778a75.8,75.8,0,0,0,8.183.354,52.606,52.606,0,0,0,5.459-.27C469.8,859.579,460.451,859.017,458.186,852.778Z" transform="translate(-419.882 -724.364)" fill="#ff8e5b"/>
          <path id="Trazado_1172534" data-name="Trazado 1172534" d="M411.317,758.215c-4.3,2.818-9.99,3.249-14.976,3.437a46.934,46.934,0,0,1-15.711-1.919c-6.162-1.925-10.926-8.362-6.872-14.069,4.939,5.537,15.971,5.645,22.583,5.517,6.669-.129,14.471-1.218,19.079-6.5,4.591,4.6.639,10.432-4.1,13.538Z" transform="translate(-348.756 -634.889)" fill="#ff8e5b"/>
          <path id="Trazado_1172535" data-name="Trazado 1172535" d="M415.357,671.973c-4.018,4.375-10.527,5.075-16.1,5.388a45.875,45.875,0,0,1-17.7-2.2,10.876,10.876,0,0,1-4.853-3.423,1.133,1.133,0,0,0-.371-.489c-2.6-3.639-2.712-8.662,1.132-12.017a10.629,10.629,0,0,0,.8,2.314c3.057,6.3,13.871,6.019,19.549,5.541.6-.051,1.291-.114,2.033-.2a1.1,1.1,0,0,0,.758-.09c4.994-.627,11.92-2.188,13.509-6.69a1.025,1.025,0,0,0,.09-.256,1.071,1.071,0,0,0,.043-.237c.11-.567.2-1.128.269-1.683C420.01,661.277,419.617,667.334,415.357,671.973Z" transform="translate(-350.583 -563.093)" fill="#ff8e5b"/>
          <path id="Trazado_1172536" data-name="Trazado 1172536" d="M472.379,422.382a15.07,15.07,0,0,0,5.32,4.3c-2.444,14.172-2,29.05-1.391,43.345-.765.077-4.583.361-6.041.366.7-10.3,1.012-20.591-.2-30.867a115.415,115.415,0,0,0-2.24-13.479A21.451,21.451,0,0,0,472.379,422.382Z" transform="translate(-427.866 -368.127)" fill="#fbf199"/>
          <path id="Trazado_1172537" data-name="Trazado 1172537" d="M482.859,320.363c-1.07-4.456-2.881-14.973,1.676-13.72,5.234,1.44,2.581,10.743,1.14,13.673q-.149.3-.311.6C484.919,321.739,483.629,323.579,482.859,320.363Z" transform="translate(-439.25 -272.245)" fill="#fbf199"/>
          <path id="Trazado_1172538" data-name="Trazado 1172538" d="M265.7,125.083c17.619-10.29,42.741-7.5,56.856,7.474,5.8,6.153,8.751,14.381,9.784,22.648,1.239,9.908-1.35,18.014-7.693,25.628-5.049,6.061-11.681,10.869-16.275,17.3-3.426,4.8-1.517,9.611-2.633,15.082-.811,2.7-4.454,4.123-8.137,4.9-2.671.564-3.175.088-3.272-2.816-.3-9.054-.312-18.117.221-27.164a115.749,115.749,0,0,1,1.149-11.8c.031.012.058.025.089.036,5.007,1.855,11.125,1.181,14.878-2.8,3.822-4.05,3.738-11.369,0-15.34-7.655-8.119-14.933,8.825-16.394,15.129a14.474,14.474,0,0,1-4.459-3.587,21.95,21.95,0,0,0,3.157-5.447c1.614-4.034,2.241-9-.4-12.759-1.512-2.152-4.269-3.114-6.355-1.189-2.655,2.45-1.932,7.53-1.491,10.62a23.589,23.589,0,0,0,2.674,8.5,21.262,21.262,0,0,1-3.908,3.374,46.89,46.89,0,0,0-3.549-9.3c-1.982-3.8-7.776-11.812-12.8-7.187-4.248,3.914-4.8,11.313-2.579,16.36,2.447,5.554,9.329,5.725,14.327,4.345a20.433,20.433,0,0,0,3.337-1.248c.67,3.248,1.131,6.461,1.583,9.285,1.583,9.888,1.488,19.914.915,29.884-.189,3.3-1.04,4.3-3.88,3.758-3.1-.59-5.919-1.853-7.416-4.352-1.624-2.711-1-6.706-.773-9.716a9.821,9.821,0,0,0-2.465-6.786c-5.9-7.553-13.787-13.3-19.266-21.227C239.062,159.548,249.02,134.823,265.7,125.083Z" transform="translate(-244.032 -116.983)" fill="#fbf199"/>
          <path id="Trazado_1172539" data-name="Trazado 1172539" d="M541.3,360.687a28.353,28.353,0,0,1,4.078-8.361c1.408-2.043,3.641-4.372,6.365-3.907,3.93.67,4.424,6.111,3.965,9.114-.991,6.486-6.522,8.421-11.991,7.455C541.4,364.579,540.514,363.5,541.3,360.687Z" transform="translate(-488.443 -306.858)" fill="#fbf199"/>
          <path id="Trazado_1172540" data-name="Trazado 1172540" d="M373.645,359.032a14.569,14.569,0,0,1-9.295.645c-4.147-1.159-5.443-5.786-5.214-9.6.278-4.635,3.287-11.575,8.623-7.133,3.5,2.912,5.612,7.277,7.021,11.97C375.447,357.131,375.626,358.254,373.645,359.032Z" transform="translate(-337.878 -301.195)" fill="#fbf199"/>
          <path id="Trazado_1172541" data-name="Trazado 1172541" d="M560.655,271.406c-5,8.433-14.286,12.833-19.912,20.647a21.379,21.379,0,0,0-4,11.207c-.2,2.32-.188,4.784-1.736,6.688-1.627,2-4.734,2.71-7.3,3.187.005.175.009.349.015.524.1,2.9.6,3.38,3.272,2.816,3.683-.779,7.326-2.2,8.137-4.9,1.116-5.471-.793-10.286,2.633-15.082,4.594-6.433,11.226-11.241,16.275-17.3,6.342-7.614,8.932-15.719,7.693-25.628a44.7,44.7,0,0,0-4.851-15.774C565.888,248.537,566.744,261.127,560.655,271.406Z" transform="translate(-477.421 -215.339)" fill="#f3af79"/>
          <path id="Trazado_1172542" data-name="Trazado 1172542" d="M272.671,307.245c-.227,3.011-.851,7.005.773,9.716,1.5,2.5,4.316,3.762,7.416,4.352,2.8.534,3.669-.442,3.871-3.642-2.986-.535-5.642-1.89-6.829-4.709-1.532-3.637-1-7.943-1.97-11.747-2.243-8.84-10.887-15.07-16.989-21.2a35.679,35.679,0,0,1-7.865-37.19c-6.365,11.282-7.746,25.4-.139,36.408,5.479,7.928,13.361,13.674,19.266,21.227a9.821,9.821,0,0,1,2.465,6.786Z" transform="translate(-244.053 -219.506)" fill="#f3af79"/>
          <path id="Trazado_1172543" data-name="Trazado 1172543" d="M482.21,677.346q-.111,1.931-.243,3.863c1.458-.005,5.276-.289,6.041-.366q-.08-1.872-.153-3.757a26.916,26.916,0,0,1-5.645.261Z" transform="translate(-439.565 -578.944)" fill="#f3af79"/>
          <path id="Trazado_1172544" data-name="Trazado 1172544" d="M354.008,143.637c-13.108-5.659-31.424-1.591-40.463,7.832-3.529,3.68-7.3,10.1-4.126,15.1,3.225,5.084,11.738-.314,15.406-1.933,4.917-2.17,9.7-3.636,15.122-3.619,4.7.016,9.364,1.01,14.063,1.19,4.754.183,8.633-1.848,8.956-6.924C363.318,149.735,358.565,145.6,354.008,143.637Z" transform="translate(-295.761 -135.267)" fill="#fff7cf"/>
          <path id="Trazado_1172545" data-name="Trazado 1172545" d="M418.8,744.677c-4.608,5.287-12.41,6.376-19.079,6.5-6.612.128-17.643.02-22.583-5.517a8.711,8.711,0,0,0-.8,1.381,16.088,16.088,0,0,0,5.891,4.838c5.646,2.882,12.423,3.447,18.648,2.97,5.388-.413,10.7-1.725,15.056-5.032a12.118,12.118,0,0,0,3.555-4.363A8.261,8.261,0,0,0,418.8,744.677Z" transform="translate(-352.132 -634.889)" fill="#ff564d"/>
          <path id="Trazado_1172546" data-name="Trazado 1172546" d="M467.352,857.386a4.715,4.715,0,0,1-4.141-1.718,2.216,2.216,0,0,1-.215-2.581c-1.559-.045-3.178-.132-4.81-.308A7.564,7.564,0,0,0,467.352,857.386Z" transform="translate(-419.882 -724.365)" fill="#ff564d"/>
          <path id="Trazado_1172547" data-name="Trazado 1172547" d="M387.972,664.229c2.549,3.464,7.19,4.8,11.2,5.568,8.693,1.673,21.483-.3,25.781-9.173a8.054,8.054,0,0,0,.618-1.8,10.258,10.258,0,0,0-1.234-.892c-.071.556-.159,1.116-.269,1.683a1.07,1.07,0,0,1-.043.237,1.026,1.026,0,0,1-.09.256c-1.589,4.5-8.515,6.063-13.509,6.69a1.1,1.1,0,0,1-.758.09c-.742.083-1.43.147-2.033.2-5.678.478-16.492.756-19.549-5.541a10.628,10.628,0,0,1-.8-2.314,9.431,9.431,0,0,0-.956.977,8.965,8.965,0,0,0,1.648,4.018Z" transform="translate(-360.402 -563.093)" fill="#ff564d"/>
          <path id="Trazado_1172548" data-name="Trazado 1172548" d="M392.5,719.72c1.364,4.583,8.39,6.065,12.346,4.68a.575.575,0,0,0,0-1.1c-2.025-.761-4.1-1.009-6.166-1.618-2-.592-3.607-1.938-5.555-2.587A.512.512,0,0,0,392.5,719.72Z" transform="translate(-365.502 -613.695)" fill="#fbc471"/>
          <path id="Trazado_1172549" data-name="Trazado 1172549" d="M472.391,742.858a1.9,1.9,0,0,0,2.757.327.956.956,0,0,0-.19-1.471,2.038,2.038,0,0,0-2.568.6A.529.529,0,0,0,472.391,742.858Z" transform="translate(-431.577 -632.233)" fill="#fbc471"/>
          <path id="Trazado_1172550" data-name="Trazado 1172550" d="M525.712,800.691c4.161,1.551,10.91-.273,13.178-4.181a.625.625,0,0,0-.7-.911c-1.987.583-3.752,1.551-5.7,2.24-2.21.783-4.622.925-6.781,1.8A.551.551,0,0,0,525.712,800.691Z" transform="translate(-475.452 -677.017)" fill="#fbc471"/>
          <g id="Grupo_1221236" data-name="Grupo 1221236" transform="translate(4.151 12.727)">
            <path id="Trazado_1172551" data-name="Trazado 1172551" d="M645.441,191.83A39.473,39.473,0,0,1,649.793,204a63.464,63.464,0,0,1,.972,11.178,42.136,42.136,0,0,1-.253,7.105.124.124,0,0,0,.24.066c2.253-5.8,1.578-12.785.424-18.73-1.7-8.729-6.163-18.452-14.778-22.251-.091-.04-.208.076-.116.151a37.906,37.906,0,0,1,9.159,10.308Z" transform="translate(-571.415 -181.363)" fill="#68182b"/>
            <path id="Trazado_1172552" data-name="Trazado 1172552" d="M711.922,427.13c-.108.182-.26.314-.367.5a5.961,5.961,0,0,0-.294.64,4.876,4.876,0,0,0-.409,1.537c-.007.069.084.092.127.053a3.235,3.235,0,0,0,.87-1.259,4.1,4.1,0,0,0,.24-.746,2.078,2.078,0,0,0-.033-.692A.072.072,0,0,0,711.922,427.13Z" transform="translate(-633.163 -384.754)" fill="#68182b"/>
            <path id="Trazado_1172553" data-name="Trazado 1172553" d="M262.278,285.236c0-.061-.081-.077-.109-.03-1.973,3.259-2.251,7.787-2.19,11.5a25.967,25.967,0,0,0,3.448,12.532.134.134,0,0,0,.244-.1,50.127,50.127,0,0,1-2.482-12.429C260.983,292.768,261.972,289.108,262.278,285.236Z" transform="translate(-259.972 -267.291)" fill="#68182b"/>
            <path id="Trazado_1172554" data-name="Trazado 1172554" d="M276.927,262.618c-.175.125-.442.181-.559.372a4.257,4.257,0,0,0-.359.784,3.766,3.766,0,0,0-.261,1.715c0,.033.047.064.074.031a7.4,7.4,0,0,0,.766-1.293c.12-.226.246-.449.363-.677.152-.3.073-.487.136-.809C277.1,262.657,277.012,262.558,276.927,262.618Z" transform="translate(-273.015 -248.602)" fill="#68182b"/>
            <path id="Trazado_1172555" data-name="Trazado 1172555" d="M514.249,733.689c-4.945,3.326-10.9,3.665-16.605,4.437-.053.007-.048.091,0,.1,5.518,1.223,12.941.138,16.778-4.314C514.523,733.8,514.392,733.594,514.249,733.689Z" transform="translate(-456.661 -638.501)" fill="#68182b"/>
            <path id="Trazado_1172556" data-name="Trazado 1172556" d="M416.444,811.321a54.8,54.8,0,0,0-7.069-1.418c-2.346-.45-4.519-1.436-6.838-1.943a.044.044,0,0,0-.042.072c3.187,3.254,9.619,4.006,13.917,3.532A.125.125,0,0,0,416.444,811.321Z" transform="translate(-377.927 -699.995)" fill="#68182b"/>
            <path id="Trazado_1172557" data-name="Trazado 1172557" d="M489.026,826.931c-.106-.005-.117.127-.048.179a2.363,2.363,0,0,0,.566.374,2.293,2.293,0,0,0,.623.124,1.432,1.432,0,0,0,1.343-.477.148.148,0,0,0-.064-.244,9.062,9.062,0,0,0-2.419.044Z" transform="translate(-449.483 -715.581)" fill="#68182b"/>
          </g>
        </g>
      </g>
    </g>
  </g>
</svg>
